<?xml version="1.0" encoding="utf-8"?>
<!-- Generator: Adobe Illustrator 25.2.1, SVG Export Plug-In . SVG Version: 6.00 Build 0)  -->
<svg version="1.1" id="Layer_1" xmlns="http://www.w3.org/2000/svg" xmlns:xlink="http://www.w3.org/1999/xlink" x="0px" y="0px"
	 viewBox="0 0 50 50" style="enable-background:new 0 0 50 50;" xml:space="preserve">
<style type="text/css">
	.st0{fill:#F3F3F3;}
</style>
<g>
	<path class="st0" d="M24.7,49.7c-0.4,0-0.8-0.2-1.1-0.4L7.7,34.8H1.6C0.7,34.8,0,34,0,33.1V16.9c0-0.9,0.7-1.6,1.6-1.6h6.1
		L23.6,0.8c0.7-0.6,1.7-0.6,2.3,0.1c0.3,0.3,0.4,0.7,0.4,1.1V48C26.3,48.9,25.6,49.7,24.7,49.7z M3.3,31.5h5.1
		c0.4,0,0.8,0.2,1.1,0.4L23,44.3V5.7L9.5,18c-0.3,0.3-0.7,0.4-1.1,0.4H3.3V31.5z"/>
	<path class="st0" d="M31,32.3c-0.9,0-1.6-0.7-1.6-1.6c0-0.4,0.2-0.8,0.5-1.1c2.5-2.5,2.5-6.6,0-9.1c-0.6-0.6-0.6-1.7,0-2.3
		c0.6-0.6,1.6-0.6,2.3,0c3.8,3.8,3.8,9.9,0,13.7C31.8,32.2,31.4,32.3,31,32.3z"/>
	<path class="st0" d="M36.7,38.1c-0.9,0-1.6-0.7-1.6-1.6c0-0.4,0.2-0.9,0.5-1.2c5.7-5.7,5.7-14.9,0-20.6c0,0,0,0,0,0
		c-0.6-0.6-0.7-1.7,0-2.3c0.6-0.6,1.7-0.7,2.3,0c0,0,0,0,0,0c7,7,7,18.3,0,25.2c0,0,0,0,0,0C37.6,37.9,37.2,38.1,36.7,38.1z"/>
	<path class="st0" d="M41.6,43c-0.9,0-1.6-0.7-1.6-1.6c0-0.4,0.2-0.8,0.5-1.1c8.4-8.4,8.4-22,0-30.4c-0.6-0.6-0.7-1.7,0-2.3
		c0.6-0.6,1.7-0.7,2.3,0c0,0,0,0,0,0c9.7,9.7,9.7,25.3,0,35c0,0,0,0,0,0C42.5,42.8,42,43,41.6,43z"/>
</g>
</svg>
